<svg width="181" height="130" viewBox="0 0 181 130" fill="none" xmlns="http://www.w3.org/2000/svg">
<path d="M104.314 37.5456C99.2918 30.2832 91.0202 25.616 81.0252 24.4051C71.0303 23.1941 59.9863 25.5211 49.9303 30.9567C39.8743 36.3923 18.1627 36.9198 12.9871 46.3309C7.81153 55.7421 19.5211 73.402 21.7691 82.1642C24.0171 90.9264 29.974 97.8497 38.541 101.657C47.108 105.465 57.7071 105.9 68.3833 102.882C79.0595 99.8635 120.033 86.4042 127.572 78.0436C135.111 69.6829 108.708 66.985 109.406 57.3901L65.1399 64.4795L104.314 37.5456Z" fill="#00FFD1"/>
<path d="M116.981 32.3021H181V61.7954H78.175L116.981 32.3021Z" fill="#CD8A15"/>
<ellipse cx="161.632" cy="61.7956" rx="8.8035" ry="7.72444" fill="#CD8A15"/>
<ellipse cx="120.784" cy="61.7956" rx="8.8035" ry="7.72444" fill="#CD8A15"/>
</svg>
