<svg width="103" height="70" viewBox="0 0 103 70" fill="none" xmlns="http://www.w3.org/2000/svg">
<path d="M59.3612 20.2169C56.5031 16.3063 51.796 13.7932 46.1083 13.1412C40.4206 12.4892 34.1358 13.7421 28.4134 16.669C22.6909 19.5959 10.3357 19.8799 7.39046 24.9474C4.44524 30.015 11.1087 39.5242 12.388 44.2423C13.6672 48.9604 17.057 52.6883 21.9322 54.7385C26.8073 56.7887 32.8389 57.0229 38.9143 55.3978C44.9897 53.7727 68.306 46.5253 72.5963 42.0235C76.8866 37.5216 61.8615 36.0688 62.2584 30.9024L37.0686 34.7197L59.3612 20.2169Z" fill="#00FFD1"/>
<path d="M66.5693 17.3934H103V33.2745H44.4863L66.5693 17.3934Z" fill="#CD8A15"/>
<ellipse cx="91.9786" cy="33.2745" rx="5.00973" ry="4.15931" fill="#CD8A15"/>
<ellipse cx="68.7335" cy="33.2745" rx="5.00973" ry="4.15931" fill="#CD8A15"/>
</svg>
